<svg width="65" height="56" fill="none" xmlns="http://www.w3.org/2000/svg"><path d="m36.072 3.54-2.146-.283-1.023-1.961c-.14-.233-.373-.374-.606-.327-.28 0-.514.139-.56.372L30.8 3.299l-2.146.37c-.234.047-.467.186-.561.466a.693.693 0 0 0 .186.654l1.584 1.495-.33 2.193a.627.627 0 0 0 .28.653c.232.14.465.187.699.048l1.914-1.07 1.959 1.029c.233.14.466.094.7-.046l.046-.046c.14-.14.187-.373.188-.56l-.37-2.147 1.541-1.537c.187-.187.234-.42.141-.7-.046-.327-.279-.56-.559-.56Zm-2.66.976 1.166.142-.841.838c-.14.14-.188.373-.188.56l.232 1.167-1.073-.515c-.186-.093-.466-.094-.606.046l-1.027.558.188-1.213c.047-.233-.046-.42-.186-.56l-.885-.794 1.213-.185a.641.641 0 0 0 .467-.373l.515-1.072.512 1.074a.633.633 0 0 0 .512.327Z" fill="url(#a)"/><path d="m7.81 27.342.796-2.005c.047-.234.047-.514-.14-.7a.693.693 0 0 0-.652-.188l-2.1.603-1.678-1.402c-.187-.187-.467-.187-.653-.094-.234.14-.42.326-.374.56l-.05 2.192-1.962 1.21c-.233.14-.327.42-.327.607.046.233.186.466.419.514l2.052.749.603 2.194c.047.233.233.42.513.514a.628.628 0 0 0 .653-.28l1.356-1.724 2.193.143a.75.75 0 0 0 .513-.232l.14-.14c.14-.233.094-.466-.045-.7L7.81 27.342Zm-.932-1.215-.468 1.12c-.094.186-.047.42.046.606l.698.98-1.213-.094c-.186 0-.42.046-.56.279l-.748.932-.325-1.167a.495.495 0 0 0-.42-.42l-1.025-.468 1.027-.652a.633.633 0 0 0 .328-.513l.048-1.166.932.747c.14.14.373.188.607.141l1.073-.325Z" fill="url(#b)"/><path d="M23.559 42.015a.792.792 0 1 0-1.118-1.121.792.792 0 0 0 1.118 1.121Z" fill="url(#c)"/><path d="M22.793 22.93a.792.792 0 1 0-1.118-1.12.792.792 0 0 0 1.118 1.12Z" fill="url(#d)"/><path d="M31.565 55.184a2.577 2.577 0 0 0 .005-3.639 2.576 2.576 0 0 0-3.639-.005 2.577 2.577 0 0 0-.005 3.64c.978.98 2.658.983 3.64.005Zm-.932-.934a1.253 1.253 0 0 1-1.773-.003c-.466-.467-.464-1.307.003-1.773a1.253 1.253 0 0 1 1.773.003c.466.467.511 1.26-.003 1.773Z" fill="url(#e)"/><path d="M20.008 13.035a2.577 2.577 0 0 0-3.64-.005 2.577 2.577 0 0 0-.004 3.64c.978.98 2.658.983 3.639.005a2.576 2.576 0 0 0 .005-3.64Zm-.934.932a1.253 1.253 0 0 1-.003 1.773c-.467.466-1.307.465-1.773-.002-.466-.468-.465-1.308.003-1.774a1.253 1.253 0 0 1 1.773.003Z" fill="url(#f)"/><path d="M13.965 29.684a2.576 2.576 0 0 0-.005 3.639 2.577 2.577 0 0 0 3.64.005 2.577 2.577 0 0 0 .005-3.64 2.576 2.576 0 0 0-3.64-.004Zm.932.934a1.253 1.253 0 0 1 1.773.003c.466.467.465 1.307-.003 1.773-.467.466-1.307.464-1.773-.003a1.253 1.253 0 0 1 .003-1.773Z" fill="url(#g)"/><path d="M28.057 28.677c-.14.14-.326.233-.56.186-.373-.094-9.33-1.506-16.408-10.662a.773.773 0 0 1 .095-.933c.28-.186.7-.139.933.095 6.706 8.688 15.429 10.147 15.522 10.147.327.047.606.421.559.748.046.233-.047.326-.14.42Z" fill="url(#h)"/><path d="M10.96 43.117c6.872-9.275 17.788-8.14 17.975-8.14.326.048.652.375.559.748-.047.14-.094.28-.188.373-.14.14-.326.233-.56.186-.093 0-10.263-1.042-16.714 7.628-.187.28-.654.372-.887.138-.233-.233-.372-.653-.185-.933Z" fill="url(#i)"/><path d="m29.236 20.14-.093.094c-.234.233-.56.279-.84.092-.233-.14-5.92-3.788-5.538-9.76 0-.373.327-.606.7-.605.374 0 .606.327.606.7-.334 5.18 4.887 8.546 4.933 8.593.327.14.42.607.232.887Z" fill="url(#j)"/><path d="M28.55 42.35c.328-.14.7-.047.887.234.186.28.046.7-.235.886-.046.046-6.864 3.676-5.938 9.183.046.233-.048.42-.188.56-.093.093-.233.14-.373.186-.327.046-.7-.141-.746-.561-1.11-6.348 6.267-10.35 6.594-10.489Z" fill="url(#k)"/><path d="M58.236 44.583V23H36.654c-1.632 0-2.176 1.088-1.088 2.358l8.524 10.52c1.088 1.269 1.088 3.445 0 4.896l-8.524 10.52c-1.088 1.27-.544 2.358 1.088 2.358H61.32c1.632 0 3.083-1.451 3.083-3.084-3.264.182-6.166-2.539-6.166-5.985Z" fill="url(#l)"/><defs><linearGradient id="a" x1="281" y1="57.706" x2="35.004" y2="59.568" gradientUnits="userSpaceOnUse"><stop stop-color="#FFC62D"/><stop offset=".497" stop-color="#FFE55B"/><stop offset="1" stop-color="#FFC730"/></linearGradient><linearGradient id="b" x1="281" y1="57.706" x2="35.004" y2="59.568" gradientUnits="userSpaceOnUse"><stop stop-color="#FFC62D"/><stop offset=".497" stop-color="#FFE55B"/><stop offset="1" stop-color="#FFC730"/></linearGradient><linearGradient id="c" x1="281" y1="57.706" x2="35.004" y2="59.568" gradientUnits="userSpaceOnUse"><stop stop-color="#FFC62D"/><stop offset=".497" stop-color="#FFE55B"/><stop offset="1" stop-color="#FFC730"/></linearGradient><linearGradient id="d" x1="281" y1="57.706" x2="35.004" y2="59.568" gradientUnits="userSpaceOnUse"><stop stop-color="#FFC62D"/><stop offset=".497" stop-color="#FFE55B"/><stop offset="1" stop-color="#FFC730"/></linearGradient><linearGradient id="e" x1="281" y1="57.706" x2="35.004" y2="59.568" gradientUnits="userSpaceOnUse"><stop stop-color="#FFC62D"/><stop offset=".497" stop-color="#FFE55B"/><stop offset="1" stop-color="#FFC730"/></linearGradient><linearGradient id="f" x1="281" y1="57.706" x2="35.004" y2="59.568" gradientUnits="userSpaceOnUse"><stop stop-color="#FFC62D"/><stop offset=".497" stop-color="#FFE55B"/><stop offset="1" stop-color="#FFC730"/></linearGradient><linearGradient id="g" x1="281" y1="57.706" x2="35.004" y2="59.568" gradientUnits="userSpaceOnUse"><stop stop-color="#FFC62D"/><stop offset=".497" stop-color="#FFE55B"/><stop offset="1" stop-color="#FFC730"/></linearGradient><linearGradient id="h" x1="281" y1="57.706" x2="35.004" y2="59.568" gradientUnits="userSpaceOnUse"><stop stop-color="#FFC62D"/><stop offset=".497" stop-color="#FFE55B"/><stop offset="1" stop-color="#FFC730"/></linearGradient><linearGradient id="i" x1="281" y1="57.706" x2="35.004" y2="59.568" gradientUnits="userSpaceOnUse"><stop stop-color="#FFC62D"/><stop offset=".497" stop-color="#FFE55B"/><stop offset="1" stop-color="#FFC730"/></linearGradient><linearGradient id="j" x1="281" y1="57.706" x2="35.004" y2="59.568" gradientUnits="userSpaceOnUse"><stop stop-color="#FFC62D"/><stop offset=".497" stop-color="#FFE55B"/><stop offset="1" stop-color="#FFC730"/></linearGradient><linearGradient id="k" x1="281" y1="57.706" x2="35.004" y2="59.568" gradientUnits="userSpaceOnUse"><stop stop-color="#FFC62D"/><stop offset=".497" stop-color="#FFE55B"/><stop offset="1" stop-color="#FFC730"/></linearGradient><linearGradient id="l" x1="281" y1="57.706" x2="35.004" y2="59.568" gradientUnits="userSpaceOnUse"><stop stop-color="#FFC62D"/><stop offset=".497" stop-color="#FFE55B"/><stop offset="1" stop-color="#FFC730"/></linearGradient></defs></svg>