<svg width="65" height="55" fill="none" xmlns="http://www.w3.org/2000/svg"><path d="m37.024 52.549 2.145-.29 1.502 1.624c.196.189.458.263.671.157.27-.073.46-.269.443-.506l.39-2.135 1.975-.92c.213-.106.401-.303.418-.597a.693.693 0 0 0-.35-.582l-1.921-1.028-.257-2.202a.627.627 0 0 0-.44-.557c-.262-.075-.5-.059-.688.137l-1.567 1.535-2.16-.48c-.261-.074-.474.032-.663.228l-.033.057c-.099.172-.083.41-.034.59l.92 1.974-1.085 1.888c-.131.229-.115.466.048.712.13.303.416.468.686.395Zm2.312-1.64-1.162.17.591-1.03c.099-.172.083-.41.034-.59l-.53-1.065 1.17.215c.205.042.475-.031.574-.203l.845-.808.136 1.22c.016.237.155.393.327.492l1.062.534-1.122.497a.642.642 0 0 0-.353.482l-.216 1.17-.775-.903a.633.633 0 0 0-.58-.181Z" fill="url(#a)"/><path d="m58.056 22.168-.242 2.144c.015.237.088.508.317.64a.693.693 0 0 0 .68.009l1.868-1.133 1.987.913c.229.131.499.058.655-.08.189-.196.32-.425.214-.638l-.527-2.13 1.575-1.682c.19-.196.206-.49.158-.67-.106-.214-.302-.402-.54-.386l-2.176-.186-1.158-1.958c-.106-.213-.335-.345-.63-.362a.627.627 0 0 0-.557.44l-.856 2.02-2.153.437a.75.75 0 0 0-.435.36l-.098.17c-.075.263.031.476.227.664l1.69 1.428Zm1.217.928.159-1.203c.041-.204-.065-.417-.204-.573l-.93-.763 1.194-.227c.18-.048.394-.154.468-.416l.477-1.096.62 1.041a.495.495 0 0 0 .515.296l1.112.183-.82.898a.633.633 0 0 0-.181.58l.259 1.139-1.096-.477c-.171-.099-.409-.083-.622.023l-.95.595Z" fill="url(#b)"/><path d="M39.01 12.139a.792.792 0 1 0 1.373.789.792.792 0 0 0-1.373-.79Z" fill="url(#c)"/><path d="M44.753 30.354a.792.792 0 1 0 1.373.79.792.792 0 0 0-1.373-.79Z" fill="url(#d)"/><path d="M27.83 1.53a2.577 2.577 0 0 0 .95 3.513 2.577 2.577 0 0 0 3.513-.95 2.577 2.577 0 0 0-.95-3.512c-1.2-.69-2.823-.253-3.513.949Zm1.145.657a1.253 1.253 0 0 1 1.711-.462c.572.329.791 1.14.463 1.711-.362.63-1.14.792-1.712.463a1.253 1.253 0 0 1-.463-1.712Z" fill="url(#e)"/><path d="M50.036 39.173a2.576 2.576 0 0 0 3.514-.95 2.576 2.576 0 0 0-.95-3.512c-1.201-.69-2.823-.253-3.513.949a2.576 2.576 0 0 0 .95 3.513Zm.658-1.144a1.253 1.253 0 0 1-.463-1.712c.329-.572 1.14-.791 1.712-.462.572.329.791 1.14.462 1.711a1.253 1.253 0 0 1-1.711.463Z" fill="url(#f)"/><path d="M51.502 21.523a2.577 2.577 0 0 0-.95-3.514 2.577 2.577 0 0 0-3.513.95 2.577 2.577 0 0 0 .95 3.513 2.576 2.576 0 0 0 3.513-.95Zm-1.145-.658c-.361.63-1.139.792-1.711.463-.572-.329-.791-1.14-.463-1.712.33-.572 1.14-.791 1.712-.462.572.328.824 1.082.462 1.711Z" fill="url(#g)"/><path d="M38.166 26.19c.1-.172.255-.311.492-.327.385-.007 9.398-.993 18.63 5.986.254.221.318.639.154.925a.773.773 0 0 1-.925.153c-8.75-6.625-17.55-5.745-17.64-5.721-.328.04-.696-.247-.736-.575-.106-.213-.04-.327.026-.442Z" fill="url(#h)"/><path d="M50.88 7.771c-4.2 10.753-15.032 12.52-15.212 12.569-.328.04-.728-.19-.736-.575.009-.147.017-.294.083-.409.099-.172.255-.31.492-.326.09-.024 10.177-1.687 14.13-11.744.106-.32.533-.531.819-.367.286.165.53.534.423.852Z" fill="url(#i)"/><path d="m39.268 34.736.066-.114c.164-.286.467-.416.786-.31.262.075 6.706 2.104 7.904 7.967.097.36-.157.67-.518.768-.36.097-.67-.157-.768-.518-1.035-5.085-6.957-6.965-7.014-6.998-.352-.05-.563-.476-.456-.795Z" fill="url(#j)"/><path d="M34.105 13.126c-.279.22-.663.227-.917.006-.253-.222-.227-.664-.006-.917.033-.057 5.66-5.348 3.323-10.42-.106-.212-.064-.417.034-.588.066-.115.189-.196.312-.278.303-.13.712-.047.867.346 2.736 5.834-3.334 11.63-3.613 11.85Z" fill="url(#k)"/><path d="M20.91 38.941c-1.088-1.27-1.088-3.446 0-4.897l8.524-10.52c1.088-1.27.544-2.357-1.088-2.357H6.764V42.75c0 3.446-2.72 6.167-6.166 6.167C.598 50.549 2.05 52 3.681 52h24.665c1.632 0 2.176-1.088 1.088-2.358l-8.524-10.7Z" fill="url(#l)"/><defs><linearGradient id="a" x1="30" y1="55.872" x2="-215.996" y2="57.734" gradientUnits="userSpaceOnUse"><stop stop-color="#FFC62D"/><stop offset=".497" stop-color="#FFE55B"/><stop offset="1" stop-color="#FFC730"/></linearGradient><linearGradient id="b" x1="30" y1="55.872" x2="-215.996" y2="57.734" gradientUnits="userSpaceOnUse"><stop stop-color="#FFC62D"/><stop offset=".497" stop-color="#FFE55B"/><stop offset="1" stop-color="#FFC730"/></linearGradient><linearGradient id="c" x1="30" y1="55.872" x2="-215.996" y2="57.734" gradientUnits="userSpaceOnUse"><stop stop-color="#FFC62D"/><stop offset=".497" stop-color="#FFE55B"/><stop offset="1" stop-color="#FFC730"/></linearGradient><linearGradient id="d" x1="30" y1="55.872" x2="-215.996" y2="57.734" gradientUnits="userSpaceOnUse"><stop stop-color="#FFC62D"/><stop offset=".497" stop-color="#FFE55B"/><stop offset="1" stop-color="#FFC730"/></linearGradient><linearGradient id="e" x1="30" y1="55.872" x2="-215.996" y2="57.734" gradientUnits="userSpaceOnUse"><stop stop-color="#FFC62D"/><stop offset=".497" stop-color="#FFE55B"/><stop offset="1" stop-color="#FFC730"/></linearGradient><linearGradient id="f" x1="30" y1="55.872" x2="-215.996" y2="57.734" gradientUnits="userSpaceOnUse"><stop stop-color="#FFC62D"/><stop offset=".497" stop-color="#FFE55B"/><stop offset="1" stop-color="#FFC730"/></linearGradient><linearGradient id="g" x1="30" y1="55.872" x2="-215.996" y2="57.734" gradientUnits="userSpaceOnUse"><stop stop-color="#FFC62D"/><stop offset=".497" stop-color="#FFE55B"/><stop offset="1" stop-color="#FFC730"/></linearGradient><linearGradient id="h" x1="30" y1="55.872" x2="-215.996" y2="57.734" gradientUnits="userSpaceOnUse"><stop stop-color="#FFC62D"/><stop offset=".497" stop-color="#FFE55B"/><stop offset="1" stop-color="#FFC730"/></linearGradient><linearGradient id="i" x1="30" y1="55.872" x2="-215.996" y2="57.734" gradientUnits="userSpaceOnUse"><stop stop-color="#FFC62D"/><stop offset=".497" stop-color="#FFE55B"/><stop offset="1" stop-color="#FFC730"/></linearGradient><linearGradient id="j" x1="30" y1="55.872" x2="-215.996" y2="57.734" gradientUnits="userSpaceOnUse"><stop stop-color="#FFC62D"/><stop offset=".497" stop-color="#FFE55B"/><stop offset="1" stop-color="#FFC730"/></linearGradient><linearGradient id="k" x1="30" y1="55.872" x2="-215.996" y2="57.734" gradientUnits="userSpaceOnUse"><stop stop-color="#FFC62D"/><stop offset=".497" stop-color="#FFE55B"/><stop offset="1" stop-color="#FFC730"/></linearGradient><linearGradient id="l" x1="30" y1="55.872" x2="-215.996" y2="57.734" gradientUnits="userSpaceOnUse"><stop stop-color="#FFC62D"/><stop offset=".497" stop-color="#FFE55B"/><stop offset="1" stop-color="#FFC730"/></linearGradient></defs></svg>